<?xml version="1.0" encoding="UTF-8"?><svg xmlns="http://www.w3.org/2000/svg" xmlns:xlink="http://www.w3.org/1999/xlink" height="282.67" viewBox="0 0 668.81 282.67" width="668.81"><defs><linearGradient gradientUnits="userSpaceOnUse" id="a" x1="-136.35" x2="676.58" y1="22.22" y2="16.09"><stop offset="0" stop-color="#0787ea"/><stop offset=".3" stop-color="#0678d0"/><stop offset=".92" stop-color="#04518d"/><stop offset="1" stop-color="#044c84"/></linearGradient><linearGradient id="b" x1="-136.34" x2="676.6" xlink:href="#a" y1="24.25" y2="18.12"/><linearGradient id="c" x1="-136.34" x2="676.59" xlink:href="#a" y1="23.22" y2="17.1"/><linearGradient id="d" x1="-136.16" x2="676.77" xlink:href="#a" y1="47.56" y2="41.44"/><linearGradient id="e" x1="-136.08" x2="676.86" xlink:href="#a" y1="58.74" y2="52.61"/><linearGradient id="f" x1="-136.01" x2="676.92" xlink:href="#a" y1="67.19" y2="61.07"/><linearGradient id="g" x1="-136.02" x2="676.91" xlink:href="#a" y1="65.96" y2="59.83"/><linearGradient id="h" x1="-136.02" x2="676.91" xlink:href="#a" y1="66.08" y2="59.95"/><linearGradient id="i" x1="-136.02" x2="676.92" xlink:href="#a" y1="66.91" y2="60.78"/><linearGradient id="j" x1="-136.02" x2="676.92" xlink:href="#a" y1="66.64" y2="60.51"/><linearGradient id="k" x1="-135.93" x2="677" xlink:href="#a" y1="78.04" y2="71.91"/><linearGradient id="l" x1="-135.95" x2="676.99" xlink:href="#a" y1="76.25" y2="70.12"/><linearGradient id="m" x1="-135.73" x2="677.21" xlink:href="#a" y1="105" y2="98.87"/><linearGradient id="n" x1="-135.18" x2="677.75" xlink:href="#a" y1="177.12" y2="170.99"/><linearGradient id="o" x1="-135.24" x2="677.7" xlink:href="#a" y1="169.68" y2="163.55"/><linearGradient id="p" x1="-135.21" x2="677.73" xlink:href="#a" y1="174.08" y2="167.95"/><linearGradient id="q" x1="-135.22" x2="677.72" xlink:href="#a" y1="172.47" y2="166.34"/><linearGradient id="r" x1="-135.21" x2="677.72" xlink:href="#a" y1="173.33" y2="167.2"/><linearGradient id="s" x1="-134.48" x2="678.45" xlink:href="#a" y1="270.26" y2="264.13"/><linearGradient id="t" x1="-134.48" x2="678.46" xlink:href="#a" y1="270.83" y2="264.7"/><linearGradient id="u" x1="-134.47" x2="678.47" xlink:href="#a" y1="272.24" y2="266.11"/><linearGradient id="v" x1="-134.49" x2="678.44" xlink:href="#a" y1="269.13" y2="263"/><linearGradient id="w" x1="-134.49" x2="678.44" xlink:href="#a" y1="269.14" y2="263.01"/><linearGradient id="x" x1="-134.49" x2="678.45" xlink:href="#a" y1="269.44" y2="263.32"/><linearGradient id="y" x1="-134.49" x2="678.45" xlink:href="#a" y1="269.52" y2="263.39"/><linearGradient id="z" x1="-134.49" x2="678.45" xlink:href="#a" y1="269.69" y2="263.56"/><linearGradient id="A" x1="-134.49" x2="678.45" xlink:href="#a" y1="269.89" y2="263.76"/><linearGradient id="B" x1="-134.48" x2="678.45" xlink:href="#a" y1="270.31" y2="264.18"/><linearGradient id="C" x1="-134.48" x2="678.45" xlink:href="#a" y1="270.46" y2="264.33"/><linearGradient id="D" x1="-134.48" x2="678.46" xlink:href="#a" y1="271.02" y2="264.89"/><linearGradient id="E" x1="-134.47" x2="678.46" xlink:href="#a" y1="271.44" y2="265.32"/><linearGradient id="F" x1="-134.47" x2="678.46" xlink:href="#a" y1="271.41" y2="265.29"/><linearGradient id="G" x1="-134.47" x2="678.46" xlink:href="#a" y1="271.68" y2="265.55"/><linearGradient id="H" x1="-134.47" x2="678.47" xlink:href="#a" y1="271.86" y2="265.73"/></defs><g data-name="Capa 2"><g data-name="Capa 1"><path d="M413.05.84c13.47-1.71,27.16-.67,40.46,1.9,8.42,1.87,16.91,4.37,24.23,9.08,2.94,2,6,4.56,6.84,8.2.82,3.24-1.32,6.37-3.85,8.19-5.55,4-12.41,5.41-19,6.5a122.4,122.4,0,0,1-28.63.49c-11.87-1.29-23.88-3.6-34.6-9.06-4.1-2.21-8.49-5-10.3-9.47-1.41-3.54.91-7.21,3.78-9.17C398.16,3.25,405.73,1.79,413.05.84Z" fill="url(#a)"/><path d="M501,4.61c9.8-1.48,19.82,1.71,28.17,6.77,5,3.26,10.32,7.48,11.64,13.65.84,3.84-2.18,7.33-5.71,8.35-6.27,1.91-13,.91-19.19-.92-7.14-2.33-14.07-6-19.17-11.59-2.48-2.83-4.74-6.64-3.7-10.53C494.12,6.9,497.75,5.2,501,4.61Z" fill="url(#b)"/><path d="M551.92,8.61c7.49-1.47,15.32,1.31,21.33,5.77,2.79,2.3,6,5.59,5,9.57-1.29,2.86-4.77,3.68-7.62,3.74a30.32,30.32,0,0,1-16.53-5.23c-3.16-2.21-6.53-5.19-6.71-9.33C547.59,10.72,549.71,9.11,551.92,8.61Z" fill="url(#c)"/><path d="M587.78,31.12c6.32-1.52,12.92.31,18.69,2.93,4.81,2.45,9.87,5.78,11.86,11.05,1.58,3.48-1.29,7.14-4.72,7.79-7.18,1.65-14.74-.48-21.06-4-4.35-2.69-9.6-6.27-9.94-11.87C582.17,33.92,585.06,31.76,587.78,31.12Z" fill="url(#d)"/><path d="M539.74,36.25c10-1.8,20.19,1.11,29.1,5.52,6.69,3.56,13.37,8.28,16.64,15.35,1.85,3.76,1.07,8.9-2.66,11.21-6.25,4-14.24,3.23-21.19,1.83-9.72-2.29-19.19-6.8-26.17-14.08-3-3.27-5.76-7.49-5.12-12.12C531.14,39.52,535.61,37,539.74,36.25Z" fill="url(#e)"/><path d="M272.05,38.77c7.32-1.6,15.68.17,21,5.7,5.31,5.36,7.3,13.22,6.94,20.59-.09,8.49-3.79,17.55-11.44,21.88-5.06,3.14-11.3,3.48-17,2.6-7.7-1.53-13.93-7.74-16.17-15.17-2.48-8.26-1.93-17.68,2.44-25.22a21.93,21.93,0,0,1,14.31-10.38m.7,5.41c-5.74,1.51-9.48,7-10.88,12.46-1.95,7.71-1.21,16.72,4.08,23a14.55,14.55,0,0,0,17.71,3.44c5.18-2.69,8-8.39,8.91-14,1.22-7.24,0-15.39-5-21A14.61,14.61,0,0,0,272.75,44.18Z" fill="url(#f)"/><path d="M88.56,43c8.51-5.43,19.55-5.5,28.88-2.26-.5,1.82-1,3.63-1.54,5.44-8.16-3.07-18.49-3.25-25.34,2.83C83.28,56,82.9,68.28,88,76.59c5.25,7.87,16,8.85,24.42,6.54.09-5,0-10,0-15H102.3c0-1.75,0-3.49,0-5.23,5.51,0,11,0,16.54,0,0,8,0,16.09,0,24.13-9.51,3.08-20.59,4.32-29.69-.64C81.19,82.14,77.3,72.75,77.73,64A24.53,24.53,0,0,1,88.56,43Z" fill="url(#g)"/><path d="M128.87,39.64c8-1.06,16.54-2.13,24.17,1,7.68,3.34,9.26,14.64,3.63,20.51a16,16,0,0,1-6.13,3.93,11.57,11.57,0,0,1,6.23,6.61c2,5.73,2.79,11.81,4.86,17.53-2.22,0-4.43,0-6.65,0-2.59-5.81-2.5-12.53-5.62-18.1-3-4.73-9.27-3.69-14.05-3.78q0,10.92,0,21.84c-2.13,0-4.27,0-6.39,0-.11-16.55,0-33.1,0-49.64m6.39,4.67c.1,6.08,0,12.16.05,18.24,4.85-.13,10.29.78,14.49-2.25,5-3.31,4.89-12.16-.59-15C144.94,43.1,139.86,43.5,135.26,44.31Z" fill="url(#h)"/><path d="M169.12,39.09c2.21,0,4.43,0,6.64.06q0,14.43,0,28.86c0,4.36.38,9.08,3.18,12.65,4.14,5.68,13.92,5.29,17.83-.45,2.7-3.82,2.73-8.73,2.94-13.21q0-13.95,0-27.9h6.56c-.05,10.32,0,20.63,0,31-.1,6.09-2.12,12.68-7.17,16.46-5.24,4-12.47,4.08-18.61,2.56-7.63-2.34-11.15-10.63-11.28-18C169.06,60.39,169.15,49.74,169.12,39.09Z" fill="url(#i)"/><path d="M217.36,39.63c8-1.09,16.68-2.21,24.21,1.35,9.21,4.61,9.24,19.44.8,24.84-5.42,3.6-12.29,3.93-18.57,3.2,0,6.75,0,13.49,0,20.24h-6.39c0-16.54.05-33.08-.06-49.63m6.43,4.7c.05,6.45,0,12.9.05,19.35,4.56.26,9.62.93,13.71-1.6,5.62-3.33,6.14-12.84.46-16.34C233.7,43.27,228.52,43.65,223.79,44.33Z" fill="url(#j)"/><path d="M457.16,45c18.16-1.57,37.06,0,53.82,7.59,7.32,3.51,14.91,8.52,17.62,16.59,2.31,7.09-1.78,14.37-7.21,18.76-9.47,7.69-21.56,11.17-33.37,13.24-19.6,2.69-40.24,1.76-58.66-6-7.64-3.4-15.62-8.22-19-16.28-2.41-5.57-.48-12.07,3.41-16.46,5.71-6.55,13.84-10.34,21.94-13.08A103.43,103.43,0,0,1,457.16,45Z" fill="url(#k)"/><path d="M631.84,53.54c6.82-2.15,14.18-.19,20.41,2.86,6.56,3.37,12.57,8.52,15.52,15.41,1.22,3.3,1.55,7.22,0,10.47-2.33,4.32-7.63,5.78-12.21,5.79a36.08,36.08,0,0,1-25.25-11.88C627,72.59,624.4,68,624.36,63A10.26,10.26,0,0,1,631.84,53.54Z" fill="url(#l)"/><path d="M598.58,69.89c11.52-.66,22.6,4.58,31.45,11.61,8.3,6.79,15.54,15.82,17.59,26.59,1.32,6.18-.33,13.49-5.73,17.26-5.36,4-12.5,3.93-18.8,2.89-12.25-2.64-23.27-10-31.23-19.54-6.14-7.58-11.19-17.55-8.69-27.52C584.91,74.34,591.83,70.21,598.58,69.89Z" fill="url(#m)"/><path d="M529.13,99.72A72.79,72.79,0,0,1,603.56,202c-11.2,25.48-38.09,43-66,42.81a72.76,72.76,0,0,1-8.47-145.1Z" fill="url(#n)"/><path d="M48.9,101.27c4.5.09,9-.14,13.5.09,16.58,44.37,32.47,89,48.82,133.48-4.68,0-9.36,0-14,0-6.21-17.19-12.62-34.31-18.7-51.54-15.23-.17-30.46-.09-45.69-.05-6.16,17.23-12.53,34.39-18.74,51.6H0c10.48-28.68,20.87-57.39,31.39-86.05h14c-2.48,7.18-5.24,14.27-7.71,21.45,12,0,24,0,36,0q-9-24.74-18-49.44c-5.14,8.56-10.11,17.21-15.39,25.68C43.16,131.42,46,116.34,48.9,101.27Z" fill="url(#o)"/><path d="M384.56,107c14.17-4.69,29.56-5,44.12-2a52.5,52.5,0,0,1,11.76,3.82c-1.28,4.59-2.77,9.11-4,13.71-14.77-6.29-32.06-7.25-47.2-1.69A44.38,44.38,0,0,0,363,148.19a69.42,69.42,0,0,0,.8,46.62A43.11,43.11,0,0,0,391.3,220.2a68.6,68.6,0,0,0,45.45-2.8c.86,4.51,3,9.08,3.07,13.54-9.15,4.1-19.3,5.36-29.22,5.83-15.93.84-32.62-2.55-45.51-12.34-12.82-9.43-20.5-24.66-22.58-40.25-2.05-15.93-.69-32.83,6.95-47.21A61.24,61.24,0,0,1,384.56,107Z" fill="url(#p)"/><path d="M129.69,106.9a172,172,0,0,1,38.25-2.37c10.11.54,20.59,3,28.52,9.6,9.5,7.3,12.53,21,8.52,32.07-3.34,9.14-11.43,15.79-20.4,19.05,8.94,2.42,17.51,7.56,22.39,15.62,9.11,14.77,4.53,36.14-9.82,45.92-11.88,8-26.73,9-40.62,9.4a233.42,233.42,0,0,1-26.83-1.57q0-63.87,0-127.72m16.69,11.43q0,20.89,0,41.79c11.84-.3,25.17,1.69,35.32-5.86,10.71-7.38,10.74-26-.74-32.61-10.46-5.88-23.12-4.66-34.58-3.32m0,54.48q0,24.69,0,49.4c12.53,1.24,26.34,1.9,37.49-5,13.1-8,13.43-29.78.6-38.2C173.31,171.39,159.17,173,146.37,172.81Z" fill="url(#q)"/><path d="M268.22,105.23c6.82,0,13.64,0,20.46,0Q310.79,170.05,333,234.86c-6,0-12,0-18,0-4.67-13.51-9.21-27.07-13.91-40.57H255.08c-4.47,13.54-9,27.05-13.46,40.58-5.84,0-11.68,0-17.52,0q22.08-64.81,44.12-129.64m9.58,14.34c-4.6,21.07-12.64,41.15-19.23,61.63q19.47,0,38.95,0c-4.46-13.8-9.36-27.45-13.88-41.23C281.4,133.26,280,126.3,277.8,119.57Z" fill="url(#r)"/><path d="M162,253.79a12.8,12.8,0,0,1,14.24,5.55c3.86,6.53,2.56,16.1-3.69,20.73a12.6,12.6,0,0,1-16.3-.82c-7.68-7.19-4.78-22.6,5.75-25.46m.95,2.87c-5.82,1.85-8,8.76-6.86,14.29.59,5.61,6.88,10.38,12.35,8,5.81-2.77,7.1-10.43,5.21-16C172.23,258.65,167.47,255.38,163,256.66Z" fill="url(#s)"/><path d="M236,253.65a12.93,12.93,0,0,1,9.41,1.5c8.86,5.35,8.29,20.2-.31,25.54A12.63,12.63,0,0,1,230,279.57c-8.31-7.13-5.13-23.52,6-25.92m.95,2.86c-6.66,1.57-8.8,9.73-7.12,15.63,1,5.29,7.36,9.18,12.39,6.61,5.26-2.71,6.42-9.53,5.14-14.82C246.4,259.34,241.66,255.64,236.94,256.51Z" fill="url(#t)"/><path d="M428.05,253.79c7-2.14,15,2.92,16,10.14,1.34,6.56-1.06,14.13-7.26,17.32a12.74,12.74,0,0,1-13.93-1.47c-8.38-6.92-5.65-23.09,5.18-26m.94,2.87c-6.53,2.15-8.38,10.41-6.31,16.32,1.56,5.19,8.38,8.61,13.08,5.23,4.73-3.2,5.35-9.63,4.13-14.75C438.65,259,433.69,255.33,429,256.66Z" fill="url(#u)"/><path d="M0,254.18C6,254,12.72,253,17.75,256.83c7.66,6.46,4.88,20.48-4.16,24.27-4.33,1.66-9.07,1.1-13.57.67a251.41,251.41,0,0,0,0-27.59m3.63,3q0,11,.36,21.92c3.58.33,7.63.43,10.55-2,5-4.47,5.17-13.57-.29-17.75C11.29,256.86,7.26,257.13,3.66,257.14Z" fill="url(#v)"/><path d="M28.29,253.93H44.47c0,.83-.07,2.48-.1,3.31-4.1-.07-8.21-.08-12.32-.09.07,2.9.07,5.81.06,8.71q5.09,0,10.16-.24c0,1.08,0,2.17,0,3.27q-5-.17-10-.13,0,5,0,9.93,6.8,0,13.59-.16l-.09,3.23c-5.84.08-11.67,0-17.51,0Q28.58,267.86,28.29,253.93Z" fill="url(#w)"/><path d="M53.27,254.67c3.9-1.87,8.4-.95,12.55-.72-.11.91-.35,2.72-.46,3.62-3.44-.68-7.17-1.54-10.57-.32-2.44.92-2.45,4.54-.34,5.85,3.42,2.38,7.86,3.14,10.84,6.2,3.33,3.22,2.71,9.76-1.65,11.79-4.57,2.06-9.79,1.44-14.56.56.22-.84.65-2.53.87-3.38,3.91,1,8.22,1.89,12.07.18,2.5-1.08,2.49-4.78.45-6.31-3.3-2.62-7.74-3.38-10.89-6.23C48.27,262.83,49.13,256.61,53.27,254.67Z" fill="url(#x)"/><path d="M80.81,253.91l4.82,0c3,9.49,7.66,18.36,10.73,27.83H91.7a83.19,83.19,0,0,0-2.75-9c-4.1,0-8.2,0-12.3,0a89,89,0,0,0-2.72,9.06l-4.4-.05c3.44-9.41,8-18.38,11.28-27.84m1.92,2.74c-1.34,4.53-3.39,8.79-5.07,13.2,3.4,0,6.79,0,10.19,0C86.19,265.44,84.39,261.07,82.73,256.65Z" fill="url(#y)"/><path d="M100.64,254c5.35.34,11.39-1.19,16.19,1.82,4,3.59,1.68,10.58-3.12,12.28,5.1,2.65,5.73,9,8,13.7-1.43,0-2.85,0-4.27.05-1.28-3.51-2.17-7.29-4.4-10.33-2.23-2-5.61-1.44-8.38-1.7a76.32,76.32,0,0,0,.07,12c-1.39,0-2.79,0-4.18,0,.47-9.28.4-18.58.06-27.86m3.67,2.95c.08,3.44.16,6.87.15,10.31,2.71-.13,5.66.18,8.13-1.17,3.09-1.56,3.14-6.59.17-8.3C110.15,256.39,107.12,256.87,104.31,256.9Z" fill="url(#z)"/><path d="M127.2,254.15c5.27-.06,11.07-1.21,15.94,1.33,4.45,3.3,2.3,10.89-2.69,12.56,5.09,2.68,5.73,9,8,13.74-1.42,0-2.83,0-4.24,0-1.29-3.46-2.15-7.2-4.34-10.23-2.22-2.22-5.78-1.49-8.62-1.75,0,4,0,8,.14,12l-4.15,0a202.2,202.2,0,0,0,0-27.63M131,256.9c.09,3.44.18,6.88.18,10.32,2.76-.15,5.77.16,8.27-1.26,2.87-1.61,3-6.36.17-8.08C137.06,256.3,133.89,256.89,131,256.9Z" fill="url(#A)"/><path d="M184.25,253.92h4c0,8.26-.11,16.51-.37,24.77q6.69,0,13.39-.1c0,1.05-.06,2.11-.1,3.17-5.64.05-11.29,0-16.93,0Q184.62,267.86,184.25,253.92Z" fill="url(#B)"/><path d="M205.87,253.92h4c-.12,8.25,0,16.52-.46,24.76,4.47,0,8.93,0,13.4-.08,0,1,0,2.06,0,3.09-5.66.19-11.31.06-17,.1C206.17,272.5,206.14,263.21,205.87,253.92Z" fill="url(#C)"/><path d="M267.21,254.09h4.07c-.06,3.92-.2,7.85-.29,11.78,4.34,0,8.67,0,13,0q0-6-.22-12l4.08,0c-.32,9.27-.34,18.56,0,27.83-1.38,0-2.75,0-4.12.06.14-4.35.23-8.7.19-13.06-4.25,0-8.5,0-12.75,0q0,6.51.06,13l-4,.05C267.39,272.58,267.54,263.33,267.21,254.09Z" fill="url(#D)"/><path d="M295.74,253.76l4.09.41q-.36,8.59-.1,17.2c.07,3.21,1.31,7.15,4.84,8,2.39.29,5.14.47,7.15-1.11,1.93-1.84,2.54-4.6,2.65-7.16.24-5.72,0-11.44,0-17.16h4c-.37,7.24.82,14.73-1.27,21.77-2.56,9.35-18.81,9.15-20.68-.56A93.71,93.71,0,0,1,295.74,253.76Z" fill="url(#E)"/><path d="M327.94,253.86c1.87.06,3.74.13,5.61.22,1.31,7.93,5.42,15,6.89,22.94,2-7.94,6.15-15.11,7.95-23.1h5.4c.4,9.3,1.22,18.57,2,27.84-1.35,0-2.7,0-4,.06-.39-8.14-.95-16.27-1.29-24.42-3,8.12-6.49,16.1-9.06,24.38l-2.87,0c-2.25-8.17-5.79-15.91-8.14-24.05-.55,8.05-1.52,16.06-1.84,24.12l-3.69,0C326.12,272.48,327.37,263.2,327.94,253.86Z" fill="url(#F)"/><path d="M370.21,255.46c.5-2.49,3.54-1.27,5.31-1.58,3.14,9.47,7.68,18.41,10.8,27.89l-4.6,0a85.87,85.87,0,0,0-2.89-9c-4.08,0-8.17,0-12.25,0-1,3-1.95,6-2.76,9.05-1.48,0-3-.07-4.42-.08,3.43-8.83,7.52-17.39,10.81-26.27m-2.63,14.41c3.43,0,6.87,0,10.32,0-1.83-4.34-3.57-8.72-5.1-13.16Q370.34,263.34,367.58,269.87Z" fill="url(#G)"/><path d="M390.28,254.29c1.42-.08,2.82-.33,4.24-.53,4.58,7.59,10.44,14.38,14.36,22.37-.21-7.4-.59-14.79-.51-22.2H412a271,271,0,0,0,0,27.93l-3.28-.21c-4.81-7.82-10.87-14.83-15.09-23,.33,7.73.31,15.47.47,23.2l-3.79-.1A162.22,162.22,0,0,0,390.28,254.29Z" fill="url(#H)"/></g></g></svg>